<?xml version="1.0" ?>
<!-- Uploaded to: SVG Repo, www.svgrepo.com, Generator: SVG Repo Mixer Tools -->
<svg width="800px" height="800px" viewBox="0 0 512 512" id="Layer_1" version="1.1" xml:space="preserve" xmlns="http://www.w3.org/2000/svg" xmlns:xlink="http://www.w3.org/1999/xlink">
<style type="text/css">
	.st0{fill:#2B79C2;}
	.st1{fill:#3B4652;}
</style>
<g>
<path class="st0" d="M333.2,242.5c1.6-5.6,2.5-11.6,2.5-17.8c0-35.8-29-64.7-64.7-64.7c-29.2,0-53.9,19.4-62,45.9   c-4.2-0.7-8.6-1.1-13-1.1c-44.5,0-80.6,36.1-80.6,80.6c0,44.5,36.1,80.6,80.6,80.6h135c34.1,0,61.8-27.7,61.8-61.8   C392.8,270.8,366.3,243.6,333.2,242.5z"/>
<path class="st1" d="M127.2,101h58.9v50.7c0,3.9,3.1,7,7,7s7-3.1,7-7V94c0-3.9-3.1-7-7-7h-66.7c-3.5-10.4-13.4-18-25-18   C86.9,69,75,80.8,75,95.4s11.8,26.4,26.4,26.4C114,121.8,124.6,112.8,127.2,101z M101.4,107.8c-6.8,0-12.4-5.6-12.4-12.4   S94.6,83,101.4,83s12.4,5.6,12.4,12.4S108.2,107.8,101.4,107.8z"/>
<path class="st1" d="M429,121.8c14.5,0,26.4-11.8,26.4-26.4S443.5,69,429,69c-11.6,0-21.5,7.6-25,18h-66.7c-3.9,0-7,3.1-7,7v57.7   c0,3.9,3.1,7,7,7s7-3.1,7-7V101h58.9C405.8,112.8,416.3,121.8,429,121.8z M429,83c6.8,0,12.4,5.6,12.4,12.4s-5.6,12.4-12.4,12.4   s-12.4-5.6-12.4-12.4S422.1,83,429,83z"/>
<path class="st1" d="M255.1,70.3v63.2c0,3.9,3.1,7,7,7s7-3.1,7-7V70.3c11.2-3.1,19.4-13.3,19.4-25.4c0-14.5-11.8-26.4-26.4-26.4   s-26.4,11.8-26.4,26.4C235.7,57,244,67.2,255.1,70.3z M262.1,32.5c6.8,0,12.4,5.6,12.4,12.4s-5.6,12.4-12.4,12.4   s-12.4-5.6-12.4-12.4S255.3,32.5,262.1,32.5z"/>
<path class="st1" d="M85.8,255.8H53.1v-40.9c11.8-2.6,20.8-13.2,20.8-25.8c0-14.5-11.8-26.4-26.4-26.4S21.1,174.5,21.1,189   c0,11.6,7.6,21.5,18,25v48.7c0,3.9,3.1,7,7,7h39.7c3.9,0,7-3.1,7-7S89.6,255.8,85.8,255.8z M35.1,189c0-6.8,5.6-12.4,12.4-12.4   s12.4,5.6,12.4,12.4s-5.6,12.4-12.4,12.4S35.1,195.9,35.1,189z"/>
<path class="st1" d="M85.8,318.1H58.5c-3.1-11.2-13.3-19.4-25.4-19.4c-14.5,0-26.4,11.8-26.4,26.4s11.8,26.4,26.4,26.4   c12.1,0,22.3-8.2,25.4-19.4h27.2c3.9,0,7-3.1,7-7S89.6,318.1,85.8,318.1z M33.1,337.4c-6.8,0-12.4-5.6-12.4-12.4   s5.6-12.4,12.4-12.4s12.4,5.6,12.4,12.4S39.9,337.4,33.1,337.4z"/>
<path class="st1" d="M472.9,360v-48.7c0-3.9-3.1-7-7-7h-39.7c-3.9,0-7,3.1-7,7s3.1,7,7,7h32.7v40.9c-11.8,2.6-20.8,13.2-20.8,25.8   c0,14.5,11.8,26.4,26.4,26.4s26.4-11.8,26.4-26.4C490.9,373.4,483.3,363.5,472.9,360z M464.5,397.4c-6.8,0-12.4-5.6-12.4-12.4   s5.6-12.4,12.4-12.4s12.4,5.6,12.4,12.4S471.3,397.4,464.5,397.4z"/>
<path class="st1" d="M478.9,222.6c-12.1,0-22.3,8.2-25.4,19.4h-27.2c-3.9,0-7,3.1-7,7s3.1,7,7,7h27.2c3.1,11.2,13.3,19.4,25.4,19.4   c14.5,0,26.4-11.8,26.4-26.4S493.4,222.6,478.9,222.6z M478.9,261.4c-6.8,0-12.4-5.6-12.4-12.4s5.6-12.4,12.4-12.4   s12.4,5.6,12.4,12.4S485.7,261.4,478.9,261.4z"/>
<path class="st1" d="M321.8,441.7v-45.2c0-3.9-3.1-7-7-7s-7,3.1-7,7v45.2c-11.2,3.1-19.4,13.3-19.4,25.4   c0,14.5,11.8,26.4,26.4,26.4s26.4-11.8,26.4-26.4C341.1,455,332.9,444.8,321.8,441.7z M314.8,479.5c-6.8,0-12.4-5.6-12.4-12.4   s5.6-12.4,12.4-12.4s12.4,5.6,12.4,12.4S321.6,479.5,314.8,479.5z"/>
<path class="st1" d="M227.5,425.1c-12.1,0-22.3,8.2-25.4,19.4h-21v-48c0-3.9-3.1-7-7-7s-7,3.1-7,7v55c0,3.9,3.1,7,7,7h28   c3.1,11.2,13.3,19.4,25.4,19.4c14.5,0,26.4-11.8,26.4-26.4S242,425.1,227.5,425.1z M227.5,463.9c-6.8,0-12.4-5.6-12.4-12.4   s5.6-12.4,12.4-12.4s12.4,5.6,12.4,12.4S234.3,463.9,227.5,463.9z"/>
</g>
</svg>